<?xml version="1.0" encoding="UTF-8"?>
<!DOCTYPE svg PUBLIC "-//W3C//DTD SVG 1.1//EN" "http://www.w3.org/Graphics/SVG/1.1/DTD/svg11.dtd">
<!-- Creator: CorelDRAW X7 -->
<svg xmlns="http://www.w3.org/2000/svg" xml:space="preserve" width="387.145mm" height="78.3627mm" version="1.1" style="shape-rendering:geometricPrecision; text-rendering:geometricPrecision; image-rendering:optimizeQuality; fill-rule:evenodd; clip-rule:evenodd"
viewBox="0 0 35006 7086"
 xmlns:xlink="http://www.w3.org/1999/xlink">
 <defs>
  <style type="text/css">
   <![CDATA[
    .fil0 {fill:white}
   ]]>
  </style>
 </defs>
 <g id="Layer_x0020_1">
  <metadata id="CorelCorpID_0Corel-Layer"/>
  <g id="_2665558832256">
   <path class="fil0" d="M31640 1664c-80,-42 -49,-40 -143,-134l-1022 -1031c-67,45 -116,116 -174,178l-510 506 828 800c102,90 291,241 374,365l-1701 0 0 980 1701 0c-73,110 -208,202 -301,291l-901 893c44,66 103,112 162,171l176 157c96,92 250,273 346,337l1669 -1659 1674 1664 693 -684c-66,-46 -96,-95 -160,-145l-1047 -1025 1702 0 0 -980 -1702 0c63,-93 474,-449 597,-568l605 -578c-68,-102 -588,-639 -684,-703 -69,47 -120,111 -175,177 -19,23 -14,18 -33,40l-360 361c-126,126 -510,541 -578,587l0 -1664 -1036 0 0 1664z"/>
   <path class="fil0" d="M21932 3273c374,0 603,34 883,263 97,78 166,156 232,267 54,90 132,236 142,357l-2311 0c4,-189 227,-486 355,-605 144,-134 428,-282 699,-282zm-2108 1276c0,495 -5,776 182,1241 43,109 118,262 180,357 147,224 311,398 536,554 788,547 2059,503 2811,-89 330,-260 673,-710 673,-1139l-998 0c-11,125 -118,275 -189,347 -111,112 -173,158 -323,233 -261,131 -577,164 -915,107 -293,-49 -556,-200 -700,-391 -157,-206 -296,-523 -296,-795l3403 0c66,0 55,-36 55,-111 0,-908 -304,-1745 -985,-2158 -718,-435 -1645,-464 -2380,-42 -214,124 -413,312 -566,506 -43,56 -69,92 -108,152 -200,305 -380,832 -380,1228z"/>
   <path class="fil0" d="M26758 3273c233,0 346,-6 569,79 147,56 206,94 316,182 155,122 368,412 373,626l-2312 0c7,-327 495,-887 1054,-887zm-2108 1387c0,533 87,997 334,1423 57,100 162,246 244,329 100,102 175,181 291,263 630,446 1536,522 2259,261 227,-82 405,-188 584,-322l178 -154c3,-2 7,-6 10,-9l45 -48c325,-358 352,-484 456,-930l-998 0c-30,63 -39,123 -74,185 -98,171 -254,304 -439,394 -499,241 -1206,185 -1618,-278 -81,-91 -158,-231 -202,-354 -61,-169 -98,-424 -108,-446l3458 0c0,-819 -84,-1318 -571,-1926 -74,-93 -186,-184 -280,-256 -734,-564 -1918,-578 -2687,-5 -309,230 -550,574 -700,945 -92,231 -182,601 -182,928z"/>
   <path class="fil0" d="M10411 6915c0,43 13,56 56,56 1065,0 945,69 943,-203l0 -1942c53,36 383,449 449,530l1326 1615 1220 0c-16,-63 -121,-161 -169,-219l-240 -278c-26,-32 -25,-37 -58,-72 -48,-52 -72,-90 -119,-139l-898 -1043c-25,-29 -39,-38 -63,-67l-357 -419c25,-39 81,-105 115,-144 48,-52 72,-86 120,-138l298 -350c24,-29 38,-40 61,-68l1017 -1184c103,-127 207,-225 293,-354l-1239 0c-17,64 -258,331 -316,405l-217 263c-351,443 -750,894 -1102,1340 -26,33 -97,120 -121,137l0 -3883 -999 0 0 6157z"/>
   <path class="fil0" d="M6805 3069l0 -591 -980 0 0 4493 980 0 0 -2348c0,-539 145,-979 562,-1232 236,-143 688,-173 979,-50 446,190 604,687 604,1208l0 2422 980 0 0 -2552c0,-803 -277,-1482 -886,-1850 -484,-292 -1236,-259 -1727,14 -93,51 -214,143 -286,213 -117,115 -148,184 -226,273z"/>
   <path class="fil0" d="M0 6915c0,43 13,56 55,56l3754 0 0 -943 -2773 0 0 -5270 -1036 0 0 6157z"/>
   <path class="fil0" d="M14775 5677c0,184 45,410 100,547 101,250 219,400 436,544 405,268 1031,203 1554,203l0 -925 -703 0c-220,0 -388,-195 -388,-425l0 -2330 1146 0 0 -758c0,-42 -12,-55 -55,-55l-1091 0 0 -1128 -999 0 0 4327z"/>
   <path class="fil0" d="M18307 2995l0 -517 -980 0 0 4493 980 0c0,-665 -41,-2075 55,-2663 16,-94 39,-174 68,-266 18,-60 73,-186 100,-232 272,-480 565,-519 1035,-519 102,0 109,19 203,19l0 -906c-500,-117 -917,5 -1271,356 -102,100 -119,154 -190,235z"/>
   <polygon class="fil0" points="4290,6971 5270,6971 5270,2478 4290,2478 "/>
   <polygon class="fil0" points="31640,6971 32676,6971 32676,4678 31640,4678 "/>
   <path class="fil0" d="M4161 1331c0,412 258,666 665,666 296,0 592,-276 592,-573l0 -130c0,-266 -296,-536 -573,-536 -209,0 -332,9 -504,180 -97,96 -180,210 -180,393z"/>
  </g>
 </g>
</svg>
